:SAMPLES-PER-SECOND 30
:FULLY-SPECIFIED
:DEGREES
671
root  -7.52978 39.9702 9.81476 -125.978 -85.0078 125.131
RightUpLeg  7.34897 11.3268 -6.88682
RightLeg  36.1708 2.97476 2.07609
RightFoot  44.1132 -5.75762 11.5576
RightToes  -1.33073e-015 0 -3.6325e-017
Spine  -18.7313 11.1427 26.4165
Spine1  11.5399 10.5562 -15.3741
HEad  11.5329 -23.7714 -4.60971
LeftShoulder1  6.85747 -14.883 -31.2688
LeftArm  -24.2141 -19.8401 -34.0979
LeftForeArm  46.1356 -71.4526 -29.3115
LeftHand  -0.246645 0.021 5.37786
RightShoulder  4.7684 13.2877 22.1096
RightArm  68.1007 50.6981 104.616
RightForeArm  51.2473 51.2732 10.0404
RightHand  -0.24729 -0.0210522 -5.37781
LeftUpLeg  -7.49461 -3.45735 -6.48372
LeftLeg  16.5131 -48.1962 -12.935
LeftFoot  3.38263 -0.275216 1.9715
LeftToes  5.09284e-011 3.02203e-011 3.83118e-011
672
root  -7.52514 39.9766 9.79031 -141.217 -83.6482 140.116
RightUpLeg  7.05211 11.935 -7.30358
RightLeg  36.5127 2.78886 1.95599
RightFoot  43.9177 -5.48565 11.0859
RightToes  -1.33073e-015 0 -3.6325e-017
Spine  -18.8453 10.5171 26.097
Spine1  12.1586 9.83978 -14.8114
HEad  11.0125 -21.5525 -4.41203
LeftShoulder1  7.2113 -15.2242 -32.4816
LeftArm  -22.7965 -17.7651 -34.8346
LeftForeArm  45.2439 -71.4055 -29.3836
LeftHand  -0.246645 0.021 5.37786
RightShoulder  4.97544 13.4745 23.0709
RightArm  65.6153 49.422 101.242
RightForeArm  51.012 51.5677 10.1811
RightHand  -0.24729 -0.0210522 -5.37781
LeftUpLeg  -7.15427 -3.07782 -6.3361
LeftLeg  16.0451 -46.6196 -12.2884
LeftFoot  3.03128 -0.301884 2.24842
LeftToes  5.09284e-011 3.02203e-011 3.83118e-011
673
root  -7.5254 39.9873 9.77002 -150.861 -81.999 149.524
RightUpLeg  6.74889 12.5041 -7.72843
RightLeg  36.7965 2.55347 1.78871
RightFoot  43.729 -5.30293 10.7787
RightToes  -1.33073e-015 0 -3.6325e-017
Spine  -18.9921 9.92142 25.6426
Spine1  12.838 9.13531 -14.1176
HEad  10.5561 -19.7018 -4.24313
LeftShoulder1  7.55372 -15.5522 -33.6086
LeftArm  -21.5107 -15.7195 -35.611
LeftForeArm  44.3527 -71.2966 -29.3182
LeftHand  -0.246645 0.021 5.37786
RightShoulder  5.13546 13.5437 23.9364
RightArm  63.3884 48.058 98.2143
RightForeArm  50.9498 51.8948 10.3261
RightHand  -0.24729 -0.0210522 -5.37781
LeftUpLeg  -6.79233 -2.67833 -6.17032
LeftLeg  15.5402 -45.0963 -11.6325
LeftFoot  2.69777 -0.315191 2.42431
LeftToes  5.09284e-011 3.02203e-011 3.83118e-011
674
root  -7.53461 40.004 9.75565 -157.181 -80.1588 155.604
RightUpLeg  6.48323 13.0815 -8.14662
RightLeg  36.991 2.20572 1.52121
RightFoot  43.5908 -5.04923 10.3225
RightToes  -1.33073e-015 0 -3.6325e-017
Spine  -19.0649 9.28999 24.8144
Spine1  13.4029 8.36187 -13.044
HEad  10.1992 -18.1496 -4.21709
LeftShoulder1  7.87815 -15.8509 -34.6599
LeftArm  -20.1783 -13.6636 -36.3792
LeftForeArm  43.2187 -71.1195 -29.1529
LeftHand  -0.246645 0.021 5.37786
RightShoulder  5.25771 13.5597 24.6601
RightArm  61.2943 46.5198 95.3733
RightForeArm  51.1553 52.3311 10.5025
RightHand  -0.24729 -0.0210522 -5.37781
LeftUpLeg  -6.38555 -2.18299 -5.98906
LeftLeg  14.9989 -43.6599 -11.0374
LeftFoot  2.40883 -0.327529 2.57947
LeftToes  5.09284e-011 3.02203e-011 3.83118e-011
675
root  -7.54056 40.0162 9.73468 -161.397 -78.1546 159.57
RightUpLeg  6.16825 13.72 -8.59765
RightLeg  37.2442 1.87586 1.26717
RightFoot  43.4104 -4.61088 9.5163
RightToes  -1.33073e-015 0 -3.6325e-017
Spine  -19.0983 8.67936 23.9709
Spine1  13.973 7.63929 -12.0322
HEad  9.83466 -16.7183 -4.21781
LeftShoulder1  8.1196 -16.0676 -35.4276
LeftArm  -18.7208 -11.6667 -37.1098
LeftForeArm  41.6306 -70.8687 -28.9219
LeftHand  -0.246645 0.021 5.37786
RightShoulder  5.37551 13.609 25.2881
RightArm  59.2935 44.9449 92.7294
RightForeArm  51.1568 52.6948 10.6643
RightHand  -0.24729 -0.0210522 -5.37781
LeftUpLeg  -5.95604 -1.55952 -5.82403
LeftLeg  14.4795 -42.2381 -10.5577
LeftFoot  2.13766 -0.341082 2.76993
LeftToes  5.09284e-011 3.02203e-011 3.83118e-011
676
root  -7.5395 40.0231 9.70962 -164.494 -75.9392 162.432
RightUpLeg  5.71064 14.5126 -9.08701
RightLeg  37.6225 1.59271 1.05196
RightFoot  43.0975 -4.09535 8.57655
RightToes  -1.33073e-015 0 -3.6325e-017
Spine  -18.9042 8.10788 23.2965
Spine1  14.318 7.01271 -11.2879
HEad  9.45442 -15.4951 -4.22657
LeftShoulder1  8.29794 -16.2248 -35.9871
LeftArm  -17.2428 -9.56975 -37.6797
LeftForeArm  39.8992 -70.6008 -28.6912
LeftHand  -0.246645 0.021 5.37786
RightShoulder  5.49195 13.6779 25.8642
RightArm  57.4362 43.3067 90.3548
RightForeArm  50.7475 52.8391 10.7588
RightHand  -0.24729 -0.0210522 -5.37781
LeftUpLeg  -5.52213 -0.90496 -5.67475
LeftLeg  13.9105 -40.6706 -10.0634
LeftFoot  1.84451 -0.348831 2.92045
LeftToes  5.09284e-011 3.02203e-011 3.83118e-011
677
root  -7.53935 40.0329 9.69635 -167.036 -73.519 164.755
RightUpLeg  5.17043 15.4414 -9.57544
RightLeg  38.0124 1.22717 0.761902
RightFoot  42.6691 -3.67589 7.8284
RightToes  -1.33073e-015 0 -3.6325e-017
Spine  -18.6336 7.56578 22.6634
Spine1  14.6812 6.44075 -10.6276
HEad  8.97837 -14.9009 -4.27181
LeftShoulder1  8.4462 -16.3503 -36.4546
LeftArm  -15.853 -7.58465 -38.1394
LeftForeArm  38.2822 -70.2796 -28.3396
LeftHand  -0.246645 0.021 5.37786
RightShoulder  5.56201 13.6847 26.2759
RightArm  56.0316 41.7501 88.4863
RightForeArm  50.2483 52.8081 10.7807
RightHand  -0.24729 -0.0210522 -5.37781
LeftUpLeg  -5.07228 -0.330414 -5.50842
LeftLeg  13.2572 -38.8724 -9.4728
LeftFoot  1.52077 -0.344476 2.97387
LeftToes  5.09284e-011 3.02203e-011 3.83118e-011
678
root  -7.53951 40.0436 9.69396 -169.183 -71.054 166.667
RightUpLeg  4.66225 16.3022 -10.0375
RightLeg  38.3303 0.749994 0.367264
RightFoot  42.1837 -3.36325 7.28435
RightToes  -1.33073e-015 0 -3.6325e-017
Spine  -18.3563 7.02208 21.9771
Spine1  15.1045 5.88204 -9.97822
HEad  8.50611 -15.3499 -4.35001
LeftShoulder1  8.58269 -16.4583 -36.8944
LeftArm  -14.3702 -5.86147 -38.5684
LeftForeArm  36.578 -69.859 -27.8259
LeftHand  -0.246645 0.021 5.37786
RightShoulder  5.61341 13.655 26.646
RightArm  55.0096 40.3697 86.8051
RightForeArm  49.8719 52.7788 10.7946
RightHand  -0.24729 -0.0210522 -5.37781
LeftUpLeg  -4.62559 0.183148 -5.30086
LeftLeg  12.7082 -36.9475 -8.93315
LeftFoot  1.16421 -0.337028 3.01139
LeftToes  5.09284e-011 3.02203e-011 3.83118e-011
679
root  -7.53266 40.0491 9.69102 -171.036 -68.647 168.274
RightUpLeg  4.16954 16.9514 -10.4824
RightLeg  38.6087 0.26217 -0.0458021
RightFoot  41.661 -3.04624 6.72419
RightToes  -1.33073e-015 0 -3.6325e-017
Spine  -18.0558 6.49656 21.297
Spine1  15.4818 5.35844 -9.40642
HEad  8.11006 -16.9012 -4.39613
LeftShoulder1  8.70518 -16.5687 -37.2555
LeftArm  -12.6992 -4.35066 -39.0742
LeftForeArm  34.4811 -69.2577 -27.0793
LeftHand  -0.246645 0.021 5.37786
RightShoulder  5.69659 13.6641 27.1306
RightArm  53.9611 39.0986 84.8633
RightForeArm  49.4389 52.8844 10.8744
RightHand  -0.24729 -0.0210522 -5.37781
LeftUpLeg  -4.22897 0.713223 -5.03788
LeftLeg  12.3894 -35.0275 -8.55185
LeftFoot  0.771803 -0.336143 3.12381
LeftToes  5.09284e-011 3.02203e-011 3.83118e-011
